<?xml version="1.0" encoding="utf-8"?>
<!-- Generator: Adobe Illustrator 26.1.0, SVG Export Plug-In . SVG Version: 6.00 Build 0)  -->
<svg version="1.1" id="レイヤー_1" xmlns="http://www.w3.org/2000/svg" xmlns:xlink="http://www.w3.org/1999/xlink" x="0px"
	 y="0px" viewBox="0 0 841.9 595.3" style="enable-background:new 0 0 841.9 595.3;" xml:space="preserve">
<style type="text/css">
	.st0{fill:none;stroke:#FF0000;stroke-linecap:round;stroke-miterlimit:11.3386;}
</style>
<path id="front_outsideCutPath" vector-effect="non-scaling-stroke" class="st0" d="M584.4,21.8h7v13.9h-7l-0.1,0.1v14.3l0.1,0.1h7
	v13.9h-7l-0.1,0.1v14.3l0.1,0.1h7v13.9h-7l-0.1,0.1v14.3l0.1,0.1h7v13.9h-7l-0.1,0.1v14.3l0.1,0.1h7v13.9h-7l-0.1,0.1v14.3l0.1,0.1
	h7v13.9h-7l-0.1,0.1v14.3l0.1,0.1h7v13.9h-7l-0.1,0.1v14.3l0.1,0.1h7v13.9h-7l-0.1,0.1v14.3l0.1,0.1h7v13.9h-7l-0.1,0.1v21.4
	l0.1,0.1h21.4l0.1-0.1v-7h13.9v7l0.1,0.1h14.3l0.1-0.1v-7h13.9v7l0.1,0.1h14.3l0.1-0.1v-7h13.9v7l0.1,0.1H691l0.1-0.1v-7H705v7
	l0.1,0.1h21.4l0.1-0.1V263l-0.1-0.1h-7V249h7l0.1-0.1v-14.3l-0.1-0.1h-7v-14.2h7l0.1-0.1v-14.3l-0.1-0.1h-7v-13.9h7l0.1-0.1v-14.3
	l-0.1-0.1h-7v-13.9h7l0.1-0.1v-14.3l-0.1-0.1h-7v-13.9h7l0.1-0.1v-14.3l-0.1-0.1h-7v-13.9h7l0.1-0.1V92.5l-0.1-0.1h-7V78.5h7
	l0.1-0.1V64.2l-0.1-0.1h-7V50.2h7l0.1-0.1V35.8l-0.1-0.1h-7V21.8h7l0.1-0.1V0.4l-0.4-0.1h-21.4l-0.1,0.1v7h-13.9v-7V0.3h-14.3
	l-0.1,0.1v7h-13.9v-7V0.3h-14.3l-0.1,0.1v7h-13.9v-7l-0.1-0.1h-14.3l-0.1,0.1v7h-13.9v-7V0.3h-21.4l-0.1,0.1L584.4,21.8L584.4,21.8z
	"/>
<path id="left_outsideCutPath" vector-effect="non-scaling-stroke" class="st0" d="M554.9,0.3v7H541v-7l-0.1-0.1h-14.3l-0.1,0.1v7
	h-13.8v-7l-0.1-0.1h-14.3l-0.1,0.1v7h-13.9v-7l-0.1-0.1h-14.3l-0.1,0.1v7h-13.9v-7l-0.1-0.1h-14.3l-0.1,0.1v7h-13.9v-7l-0.1-0.1
	h-14.3L413,0.3v7h-13.9v-7L399,0.2h-14.3l-0.1,0.1v7h-13.9v-7l-0.1-0.1h-14.3l-0.1,0.1v7h-13.9v-7l-0.1-0.1h-14.3l-0.1,0.1v7h-13.9
	v-7l-0.1-0.1h-14.3l-0.1,0.1v21.2h-7l-0.1,0.1v14.3l0.1,0.1h7v13.9h-7l-0.1,0.1v14.2l0.1,0.1h7v13.9h-7l-0.1,0.1v14.3l0.1,0.1h7
	v13.9h-7l-0.1,0.1V121l0.1,0.1h7v21.2l0.1,0.1h14.3l0.1-0.1v-7h13.9v7l0.1,0.1h14.3l0.1-0.1v-7h13.9v7l0.1,0.1h14.3l0.1-0.1v-7h13.9
	v7l0.1,0.1H399l0.1-0.1v-7H413v7l0.1,0.1h14.3l0.1-0.1v-7h13.9v7l0.1,0.1h14.3l0.1-0.1v-7h13.9v7l0.1,0.1h14.3l0.1-0.1v-7h13.9v7
	l0.1,0.1h14.3l0.1-0.1v-7h13.9v7l0.1,0.1H541l0.1-0.1v-7H555v7l0.1,0.1h14.3l0.1-0.1v-21.2h7l0.1-0.1v-14.3l-0.1-0.1h-7V92.7h7
	l0.1-0.1V78.2l-0.1-0.1h-7V64.2h7l0.1-0.1V49.8l-0.1-0.1h-7V35.8h7l0.1-0.1V21.4l-0.1-0.1h-7V0.1L569.4,0L554.9,0.3L554.9,0.3z"/>
<path id="top_outsideCutPath" vector-effect="non-scaling-stroke" class="st0" d="M248.5,0.3v7h-13.9v-7l-0.1-0.1h-14.3l-0.1,0.1v7
	h-13.9v-7l-0.1-0.1h-14.3l-0.1,0.1v7h-13.9v-7l-0.1-0.1h-14.3l-0.1,0.1v7h-13.9v-7l-0.1-0.1H135l-0.1,0.1v7H121v-7l-0.1-0.1h-14.3
	l-0.1,0.1v7H92.6v-7l-0.1-0.1H78.2l-0.1,0.1v7H64.2v-7l-0.1-0.1H49.8l-0.1,0.1v7H35.8v-7l-0.1-0.1H21.4l-0.1,0.1v7H7.2L7.1,7.4v14.1
	h-7L0,21.6v14.3L0.1,36h7v13.9h-7L0,50v14.2l0.1,0.1h7v13.9h-7L0,78.3v14.3l0.1,0.1h7v13.9h-7L0,106.7V121l0.1,0.1h7V135h-7L0,135.1
	v14.1l0.1,0.1h7v13.9h-7L0,163.3v14.3l0.1,0.1h7v13.9h-7L0,191.7V206l0.1,0.1h7V220h-7L0,220.1v14.3l0.1,0.1h7v13.7h-7L0,248.3v14.3
	l0.1,0.1h7v14.1l0.1,0.1h14.5v7l0.1,0.1h14.3l0.1-0.1v-7h13.9v7l0.1,0.1h14.3l0.1-0.1v-7h13.9v7l0.1,0.1h14.3l0.1-0.1v-7h13.7v7
	l0.1,0.1h14.3l0.1-0.1v-7h13.9v7l0.1,0.1h14.3l0.1-0.1v-7h13.9v7l0.1,0.1h14.3l0.1-0.1v-7h13.9v7l0.1,0.1h14.3l0.1-0.1v-7h13.9v7
	l0.1,0.1h14.3l0.1-0.1v-7h13.9v7l0.1,0.1h14.3l0.1-0.1v-7h14.1l0.1-0.1v-14.1h7l0.1-0.1v-14.3l-0.1-0.1h-7v-13.9h7l0.1-0.1v-14.3
	l-0.1-0.1h-7v-13.9h7l0.1-0.1v-14.3l-0.1-0.1h-7v-13.9h7l0.1-0.1v-14.3l-0.1-0.1h-7v-13.9h7l0.1-0.1v-14.3l-0.1-0.1h-7v-13.9h7
	l0.1-0.1v-14.3l-0.1-0.1h-7V92.3h7l0.1-0.1v-14l-0.1-0.1h-7V64.2h7l0.1-0.1V49.8l-0.1-0.1h-7V35.8h7l0.1-0.1V21.4l-0.1-0.1h-7V7.2
	l-0.1-0.1h-14.1v-7L263.1,0L248.5,0.3L248.5,0.3z"/>
<path id="back_outsideCutPath" vector-effect="non-scaling-stroke" class="st0" d="M555.2,430v7h-13.9v-7l-0.1-0.1h-14.3l-0.1,0.1v7
	h-13.9v-7l-0.1-0.1h-14.3l-0.1,0.1v7h-13.9v-7l-0.1-0.1h-14.3L470,430v7h-13.9v-7l-0.1-0.1h-14.3l-0.1,0.1v7h-13.9v-7l-0.1-0.1
	h-14.3l-0.1,0.1v7h-13.9v-7l-0.1-0.1h-14.3l-0.1,0.1v7h-13.9v-7l-0.1-0.1h-14.3l-0.1,0.1v7h-13.9v-7l-0.1-0.1h-14.3L328,430v7h-13.9
	v-7l-0.1-0.1h-21.4l-0.1,0.1v21.4l0.1,0.1h7v13.9h-7l-0.1,0.1v14.3l0.1,0.1h7v13.9h-7l-0.1,0.1v14.3l0.1,0.1h7v13.9h-7l-0.1,0.1
	v14.1l0.1,0.1h7v13.9h-7l-0.1,0.1v21.4l0.1,0.1H314l0.1-0.1v-7H328v7l0.1,0.1h14.3l0.1-0.1v-7h14.2v7l0.1,0.1h14.3l0.1-0.1v-7h13.9
	v7l0.1,0.1h14.3l0.1-0.1v-7h13.9v7l0.1,0.1h14.3l0.1-0.1v-7h13.9v7l0.1,0.1h14.3l0.1-0.1v-7h13.9v7l0.1,0.1h14.1l0.1-0.1v-7h13.9v7
	l0.1,0.1h14.2l0.1-0.1v-7h13.9v7l0.1,0.1h14.3l0.1-0.1v-7h13.9v7l0.1,0.1h21.3l0.1-0.1v-21.4l-0.1-0.1h-7v-13.9h7l0.1-0.1v-14.3
	l-0.1-0.1h-7v-13.9h7h0.1v-14.3l-0.1-0.1h-7v-13.9h7l0.1-0.1v-14.3l-0.1-0.1h-7v-13.9h7h0.1V430l-0.1-0.1L555.2,430L555.2,430z"/>
<path id="right_outsideCutPath" vector-effect="non-scaling-stroke" class="st0" d="M554.9,150.8v7H541v-7l-0.1-0.1h-14.3l-0.1,0.1
	v7h-13.8v-7l-0.1-0.1h-14.3l-0.1,0.1v7h-13.9v-7l-0.1-0.1h-14.3l-0.1,0.1v7h-13.9v-7l-0.1-0.1h-14.3l-0.1,0.1v7h-13.9v-7l-0.1-0.1
	h-14.3l-0.1,0.1v7h-13.9v-7l-0.1-0.1h-14.3l-0.1,0.1v7h-13.9v-7l-0.1-0.1h-14.3l-0.1,0.1v7h-13.9v-7l-0.1-0.1h-14.3l-0.1,0.1v7
	h-13.9v-7l-0.1-0.1h-14.3l-0.1,0.1V172h-7l-0.1,0.1v14.3l0.1,0.1h7v13.9h-7l-0.1,0.1v14.3l0.1,0.1h7v13.9h-7l-0.1,0.1v14.3l0.1,0.1
	h7v13.9h-7l-0.1,0.1v14.3l0.1,0.1h7v21.2l0.1,0.1h14.3l0.1-0.1v-7h13.9v7l0.1,0.1h14.3l0.1-0.1v-7h13.9v7l0.1,0.1h14.3l0.1-0.1v-7
	h13.9v7l0.1,0.1H399l0.1-0.1v-7H413v7l0.1,0.1h14.3l0.1-0.1v-7h13.9v7l0.1,0.1h14.3l0.1-0.1v-7h13.9v7l0.1,0.1h14.3l0.1-0.1v-7h13.9
	v7l0.1,0.1h14.3l0.1-0.1v-7h13.9v7l0.1,0.1H541l0.1-0.1v-7H555v7l0.1,0.1h14.3l0.1-0.1v-21.2h7l0.1-0.1v-14.3l-0.1-0.1h-7v-13.9h7
	l0.1-0.1v-14.3l-0.1-0.1h-7v-13.9h7l0.1-0.1v-14.3l-0.1-0.1h-7v-13.9h7l0.1-0.1v-14.3l-0.1-0.1h-7v-21.2l-0.1-0.1L554.9,150.8
	L554.9,150.8z"/>
<path id="bottom_outsideCutPath" vector-effect="non-scaling-stroke" class="st0" d="M248.6,288.1v7h-13.9v-7l-0.1-0.1h-14.3
	l-0.1,0.1v7h-13.9v-7l-0.1-0.1h-14.3l-0.1,0.1v7h-13.9v-7l-0.1-0.1h-14.3l-0.1,0.1v7h-13.9v-7l-0.1-0.1h-14.3l-0.1,0.1v7h-13.9v-7
	L121,288h-14.3l-0.1,0.1v7H92.7v-7l-0.1-0.1H78.3l-0.1,0.1v7H64.3v-7l-0.1-0.1H49.9l-0.1,0.1v7H35.9v-7l-0.1-0.1H21.5l-0.1,0.1v7
	H7.3l-0.1,0.1v14.1h-7l-0.1,0.1v14.3l0.1,0.1h7v13.9h-7l-0.1,0.1v14.3l0.1,0.1h7v13.9h-7l-0.1,0.1v14.3l0.1,0.1h7v13.9h-7l-0.1,0.1
	v14.3l0.1,0.1h7v13.9h-7L0.1,423v14.3l0.1,0.1h7v13.9h-7l-0.1,0.1v14.3l0.1,0.1h7v13.6h-7l-0.1,0.1v14.3l0.1,0.1h7v13.8h-7l-0.1,0.1
	v14.3l0.1,0.1h7v13.9h-7l-0.1,0.1v14.3l0.1,0.1h7v14l0.1,0.1h14.5v7l0.1,0.1h14.3l0.1-0.1v-7h13.9v7v0.1h14.3l0.1-0.1v-7h13.9v7
	l0.1,0.1h14.3l0.1-0.1v-7h13.8v7l0.1,0.1h14.3l0.1-0.1v-7h13.9v7l0.1,0.1h14.3l0.1-0.1v-7h13.9v7v0.1h14.3l0.1-0.1v-7h13.9v7
	l0.1,0.1h14.3l0.1-0.1v-7h13.9v7v0.1h14.3l0.1-0.1v-7h13.9v7l0.1,0.1H263l0.1-0.1v-7h14.1l0.1-0.1v-14.1h7l0.1-0.1v-14.3l-0.1-0.1
	h-7v-13.9h7l0.1-0.1v-14.2l-0.1-0.1h-7v-13.9h7l0.1-0.1v-14.3l-0.1-0.1h-7v-13.9h7l0.1-0.1V451l-0.1-0.1h-7V437h7l0.1-0.1v-14.1
	l-0.1-0.1h-7v-13.9h7l0.1-0.1v-14.3l-0.1-0.1h-7v-13.9h7l0.1-0.1V366l-0.1-0.1h-7V352h7l0.1-0.1v-14.3l-0.1-0.1h-7v-13.7h7l0.1-0.1
	v-14.3l-0.1-0.1h-7v-14.1l-0.1-0.1h-14.1v-7L263,288L248.6,288.1L248.6,288.1z"/>
<rect x="392.1" y="202" class="st0" width="85" height="7.1"/>
<rect x="392.1" y="51.5" class="st0" width="85" height="7.1"/>
<g>
	<polygon class="st0" points="568.8,301.3 299.5,301.3 299.5,315.5 292.4,315.5 292.4,400.5 299.5,400.5 299.5,414.7 568.8,414.7 
		568.8,400.5 575.9,400.5 575.9,315.5 568.8,315.5 	"/>
	<circle class="st0" cx="388.8" cy="312.7" r="5.7"/>
	<circle class="st0" cx="479.5" cy="312.7" r="5.7"/>
	<circle class="st0" cx="388.8" cy="403.4" r="5.7"/>
	<circle class="st0" cx="479.5" cy="403.4" r="5.7"/>
</g>
<g>
	<rect x="236.7" y="251" class="st0" width="1.4" height="5.7"/>
	<rect x="236.7" y="239.7" class="st0" width="1.4" height="5.7"/>
	<rect x="251.4" y="245.4" class="st0" width="1.4" height="5.7"/>
</g>
<g>
	<rect x="236.6" y="194.4" class="st0" width="1.7" height="1.7"/>
	<rect x="236.6" y="201.3" class="st0" width="1.7" height="1.7"/>
	<rect x="236.6" y="208.3" class="st0" width="1.7" height="1.7"/>
	<rect x="236.6" y="215.2" class="st0" width="1.7" height="1.7"/>
	<rect x="236.6" y="222.2" class="st0" width="1.7" height="1.7"/>
</g>
</svg>
